Coordinates
version=1
nRows=43
nColumns=12
inDegrees=yes

Units are S.I. units (second, meters, Newtons, ...)
Angles are in degrees

endheader
time	SC_y	SC_z	SC_x	AC_y	AC_z	AC_x	GH_y	GH_z	GH_yy	EL_x	PS_y
       0.0              -16.86         -4.668          80.38          52.71          1.409         -2.386         -157.5          87.47          24.66          84.53          92.17
   0.03571              -16.86         -4.664          80.38           52.7           1.41         -2.383         -157.4          87.45          24.68          84.54          92.18
   0.07142              -16.86          -4.66          80.38           52.7          1.411          -2.38         -157.4          87.44          24.69          84.54          92.19
    0.1071              -16.86         -4.656          80.37           52.7          1.412         -2.377         -157.3          87.42          24.71          84.54          92.19
    0.1428              -16.86         -4.652          80.37           52.7          1.413         -2.374         -157.3           87.4          24.73          84.55           92.2
    0.1785              -16.86         -4.647          80.37           52.7          1.414         -2.371         -157.3          87.38          24.75          84.55          92.21
    0.2143              -16.86         -4.642          80.36          52.69          1.415         -2.367         -157.2          87.36          24.77          84.56          92.22
      0.25              -16.86         -4.636          80.36          52.69          1.417         -2.363         -157.2          87.34           24.8          84.56          92.23
    0.2857              -16.86         -4.631          80.35          52.69          1.418         -2.359         -157.1          87.32          24.82          84.57          92.24
    0.3214              -16.86         -4.624          80.35          52.69          1.419         -2.354         -157.0          87.29          24.85          84.57          92.25
    0.3571              -16.86         -4.618          80.34          52.68          1.421          -2.35         -157.0          87.26          24.88          84.58          92.27
    0.3928              -16.86          -4.61          80.34          52.68          1.423         -2.344         -156.9          87.23          24.91          84.59          92.28
    0.4285              -16.86         -4.603          80.33          52.68          1.425         -2.339         -156.8           87.2          24.94          84.59          92.29
    0.4642              -16.86         -4.594          80.32          52.68          1.427         -2.333         -156.7          87.17          24.97           84.6          92.31
    0.4999              -16.86         -4.585          80.32          52.67          1.429         -2.326         -156.7          87.13          25.01          84.61          92.33
    0.5356              -16.85         -4.576          80.31          52.67          1.431         -2.319         -156.6          87.09          25.05          84.62          92.34
    0.5714              -16.85         -4.565           80.3          52.66          1.434         -2.311         -156.5          87.04           25.1          84.63          92.36
    0.6071              -16.85         -4.553          80.29          52.66          1.437         -2.303         -156.4           87.0          25.15          84.64          92.39
    0.6428              -16.85         -4.541          80.28          52.65           1.44         -2.294         -156.2          86.94           25.2          84.65          92.41
    0.6785              -16.85         -4.527          80.27          52.65          1.443         -2.283         -156.1          86.89          25.26          84.66          92.44
    0.7142              -16.85         -4.511          80.26          52.64          1.447         -2.272         -156.0          86.82          25.33          84.68          92.47
    0.7499              -16.85         -4.495          80.25          52.63          1.451          -2.26         -155.8          86.75           25.4          84.69           92.5
    0.7856              -16.85         -4.476          80.23          52.63          1.455         -2.247         -155.6          86.68          25.48          84.71          92.53
    0.8213              -16.85         -4.456          80.22          52.62           1.46         -2.232         -155.4          86.59          25.57          84.73          92.57
     0.857              -16.84         -4.433           80.2          52.61          1.465         -2.215         -155.2           86.5          25.66          84.75          92.61
    0.8927              -16.84         -4.407          80.18           52.6          1.472         -2.197         -155.0          86.39          25.77          84.77          92.66
    0.9284              -16.84         -4.379          80.16          52.59          1.478         -2.176         -154.7          86.27          25.89           84.8          92.71
    0.9642              -16.84         -4.347          80.13          52.57          1.486         -2.152         -154.4          86.14          26.03          84.83          92.77
    0.9999              -16.84          -4.31          80.11          52.56          1.495         -2.126         -154.0          85.99          26.18          84.86          92.84
     1.036              -16.83         -4.269          80.07          52.54          1.505         -2.096         -153.6          85.82          26.36           84.9          92.92
     1.071              -16.83         -4.222          80.04          52.52          1.516         -2.062         -153.2          85.62          26.56          84.94          93.01
     1.107              -16.83         -4.168           80.0           52.5          1.529         -2.023         -152.7           85.4          26.79          84.99          93.11
     1.143              -16.82         -4.106          79.95          52.47          1.544         -1.977         -152.1          85.14          27.06          85.04          93.23
     1.178              -16.82         -4.033          79.89          52.44          1.561         -1.925         -151.4          84.84          27.36          85.11          93.36
     1.214              -16.81         -3.949          79.83          52.41          1.582         -1.863         -150.6          84.49          27.73          85.19          93.52
      1.25               -16.8         -3.849          79.75          52.37          1.606         -1.791         -149.6          84.08          28.15          85.28          93.71
     1.286               -16.8          -3.73          79.66          52.32          1.634         -1.704         -148.5          83.59          28.66          85.39          93.93
     1.321              -16.79         -3.588          79.55          52.26          1.668         -1.601         -147.1           83.0          29.26          85.51           94.2
     1.357              -16.77         -3.416          79.42          52.19           1.71         -1.476         -145.5          82.29           30.0          85.67          94.52
     1.393              -16.76         -3.206          79.26           52.1           1.76         -1.323         -143.4          81.42          30.89          85.86          94.91
     1.428              -16.74         -2.946          79.06          51.99          1.822         -1.135         -141.0          80.34           32.0           86.1           95.4
     1.464              -16.72         -2.623          78.81          51.86            1.9        -0.8993         -137.9           79.0          33.38          86.39          96.01
       1.5              -16.69         -2.215          78.49          51.69          1.998         -0.603         -133.9          77.31          35.11          86.76          96.77
